<svg xmlns="http://www.w3.org/2000/svg" viewBox="0 0 1254 1254" fill="none">
  <defs>
    <linearGradient id="jgGradient" x1="1027" y1="215" x2="255" y2="986" gradientUnits="userSpaceOnUse">
      <stop offset="0" stop-color="#22D3EE"/>
      <stop offset="0.45" stop-color="#2B6FFF"/>
      <stop offset="1" stop-color="#1E3A8A"/>
    </linearGradient>
  </defs>
  <g fill="url(#jgGradient)">
  <path d="M0 0 C0.743 -0.003 1.487 -0.005 2.253 -0.008 C2.663 -0.007 2.663 -0.007 4.738 -0.001 C5.173 -0.002 5.173 -0.002 7.371 -0.006 C10.299 -0.01 13.227 -0.007 16.155 -0.004 C18.247 -0.005 20.339 -0.007 22.432 -0.009 C27.536 -0.013 32.64 -0.012 37.743 -0.009 C41.891 -0.007 46.039 -0.007 50.187 -0.008 C50.482 -0.008 50.482 -0.008 51.974 -0.008 C53.172 -0.009 54.37 -0.009 55.568 -0.009 C66.811 -0.012 78.054 -0.009 89.297 -0.004 C98.946 0.001 108.594 0 118.243 -0.005 C129.442 -0.01 140.641 -0.012 151.84 -0.009 C153.034 -0.009 154.228 -0.008 155.422 -0.008 C156.01 -0.008 156.597 -0.008 157.203 -0.008 C161.345 -0.007 165.488 -0.008 169.63 -0.01 C175.206 -0.013 180.783 -0.011 186.359 -0.006 C188.409 -0.004 190.458 -0.005 192.508 -0.007 C195.3 -0.01 198.092 -0.006 200.885 -0.001 C201.7 -0.003 202.516 -0.006 203.357 -0.008 C203.731 -0.007 203.731 -0.007 205.625 0 C206.27 0 206.914 0 207.578 0 C209.625 0.138 211.467 0.575 213.439 1.126 C214.672 3.593 214.563 5.203 214.562 7.963 C214.564 8.992 214.566 10.02 214.568 11.079 C214.565 12.217 214.562 13.355 214.559 14.528 C214.559 15.742 214.56 16.957 214.561 18.171 C214.564 21.519 214.56 24.866 214.555 28.214 C214.55 31.82 214.552 35.426 214.553 39.032 C214.553 45.283 214.55 51.534 214.544 57.785 C214.536 66.823 214.534 75.861 214.532 84.899 C214.53 99.562 214.523 114.224 214.514 128.887 C214.505 143.133 214.498 157.379 214.494 171.625 C214.493 172.064 214.493 172.064 214.493 174.285 C214.491 178.688 214.49 183.09 214.489 187.493 C214.479 224.037 214.461 260.582 214.439 297.126 C213.164 297.923 211.889 298.72 210.614 299.517 C209.904 299.961 209.194 300.405 208.462 300.862 C206.856 301.865 205.247 302.865 203.638 303.864 C197.022 308.01 190.688 312.448 184.439 317.126 C183.608 317.737 182.778 318.348 181.923 318.977 C178.441 321.595 175.293 324.089 172.564 327.501 C170.439 330.126 170.439 330.126 167.439 331.126 C166.009 332.579 166.009 332.579 164.564 334.376 C162.422 337.021 160.154 339.447 157.733 341.84 C149.6 349.921 142.898 358.69 136.439 368.126 C135.838 368.987 135.237 369.848 134.618 370.735 C131.453 375.348 128.79 380.05 126.439 385.126 C125.779 385.126 125.119 385.126 124.439 385.126 C124.316 385.688 124.194 386.25 124.067 386.829 C123.387 389.316 122.445 391.531 121.376 393.876 C121.014 394.675 120.652 395.474 120.278 396.298 C120.001 396.901 119.724 397.504 119.439 398.126 C118.779 398.126 118.119 398.126 117.439 398.126 C117.109 399.116 116.779 400.106 116.439 401.126 C115.779 400.796 115.119 400.466 114.439 400.126 C114.439 300.796 114.439 201.466 114.439 99.126 C17.626 99.188 17.626 99.188 -12.983 99.216 C-25.283 99.22 -25.283 99.22 -31.036 99.221 C-35.067 99.222 -39.099 99.226 -43.13 99.231 C-48.266 99.238 -53.402 99.24 -58.538 99.239 C-60.427 99.239 -62.316 99.241 -64.205 99.245 C-66.748 99.25 -69.292 99.249 -71.836 99.246 C-72.582 99.249 -73.327 99.252 -74.096 99.255 C-77.196 99.246 -79.596 99.114 -82.561 98.126 C-82.044 93.947 -80.894 91.958 -77.999 88.938 C-75.17 85.89 -72.455 82.825 -69.874 79.563 C-65.86 74.491 -61.788 69.467 -57.705 64.45 C-54.825 60.911 -51.948 57.37 -49.081 53.821 C-47.95 52.423 -46.818 51.024 -45.686 49.626 C-45.144 48.955 -44.601 48.284 -44.042 47.593 C-40.712 43.493 -37.32 39.486 -33.733 35.606 C-32.561 34.126 -32.561 34.126 -31.561 31.126 C-29.999 29.438 -29.999 29.438 -28.561 28.126 C-27.901 28.126 -27.241 28.126 -26.561 28.126 C-26.449 27.859 -26.449 27.859 -25.882 26.509 C-24.112 23.316 -21.827 20.746 -19.436 18.001 C-15.199 13.078 -11.102 8.087 -7.12 2.954 C-4.861 0.304 -3.342 0.001 0 0 Z " transform="translate(474.56142234802246,214.87415885925293)"/>
  <path d="M0 0 C0.821 -0.002 1.641 -0.005 2.487 -0.007 C5.217 -0.013 7.946 -0.012 10.676 -0.012 C12.641 -0.015 14.606 -0.018 16.572 -0.022 C21.893 -0.031 27.215 -0.033 32.537 -0.034 C35.862 -0.034 39.187 -0.036 42.512 -0.039 C53.512 -0.048 64.512 -0.052 75.512 -0.052 C75.808 -0.052 75.808 -0.052 77.305 -0.052 C77.898 -0.052 78.49 -0.052 79.101 -0.051 C88.72 -0.051 98.339 -0.061 107.958 -0.075 C117.843 -0.089 127.729 -0.096 137.615 -0.095 C143.161 -0.095 148.708 -0.098 154.255 -0.108 C159.465 -0.118 164.675 -0.118 169.886 -0.111 C171.8 -0.11 173.714 -0.112 175.628 -0.118 C178.236 -0.126 180.844 -0.121 183.452 -0.114 C184.213 -0.119 184.974 -0.124 185.758 -0.129 C189.502 -0.105 192.237 0.008 195.472 2.134 C194.432 7.749 191.399 11.207 187.472 15.134 C186.022 16.961 184.64 18.83 183.261 20.712 C181.901 22.553 180.522 24.371 179.121 26.181 C178.714 26.71 178.308 27.239 177.889 27.784 C177.083 28.833 176.272 29.879 175.456 30.921 C173.418 33.591 171.96 35.775 171.472 39.134 C170.977 39.299 170.977 39.299 168.472 40.134 C167.141 41.649 167.141 41.649 165.8 43.599 C165.304 44.311 164.808 45.024 164.298 45.758 C163.778 46.522 163.258 47.285 162.722 48.071 C162.453 48.459 162.453 48.459 161.09 50.423 C159.174 53.187 157.273 55.962 155.375 58.739 C151.707 64.101 147.851 69.168 143.686 74.146 C140.556 77.928 137.901 81.874 135.472 86.134 C134.812 86.134 134.152 86.134 133.472 86.134 C133.369 86.711 133.266 87.289 133.16 87.884 C132.373 90.457 131.12 92.031 129.472 94.134 C129.126 94.135 129.126 94.135 127.373 94.141 C110.425 94.2 93.477 94.276 76.529 94.369 C68.333 94.414 60.137 94.454 51.941 94.48 C44.787 94.503 37.634 94.537 30.48 94.582 C26.702 94.606 22.923 94.625 19.144 94.631 C-0.402 94.668 -19.58 95.146 -38.528 100.571 C-39.311 100.788 -40.094 101.005 -40.9 101.228 C-43.114 101.849 -45.321 102.488 -47.528 103.134 C-48.071 103.287 -48.071 103.287 -50.821 104.063 C-59.543 106.723 -67.508 110.86 -75.528 115.134 C-76.075 115.421 -76.622 115.709 -77.185 116.005 C-87.699 121.586 -97.417 128.848 -105.715 137.384 C-107.719 139.405 -109.822 141.211 -112.028 143.009 C-115.543 145.962 -118.057 149.286 -120.528 153.134 C-121.188 153.134 -121.848 153.134 -122.528 153.134 C-122.791 153.862 -123.054 154.59 -123.325 155.341 C-124.543 158.168 -125.96 160.344 -127.778 162.821 C-142.671 183.715 -151.291 206.894 -155.528 232.134 C-155.631 232.734 -155.734 233.334 -155.84 233.953 C-160.796 267.251 -153.943 301.96 -137.528 331.134 C-137.015 332.061 -136.502 332.987 -135.973 333.942 C-130.249 343.859 -123.302 352.76 -115.528 361.134 C-115.528 361.794 -115.528 362.454 -115.528 363.134 C-114.941 363.216 -114.355 363.299 -113.751 363.384 C-110.869 364.356 -109.849 365.774 -107.965 368.134 C-104.842 372.029 -104.842 372.029 -101.528 373.134 C-100.861 374.134 -100.195 375.134 -99.528 376.134 C-98.538 376.464 -97.548 376.794 -96.528 377.134 C-95.366 378.341 -94.205 379.548 -93.044 380.757 C-90.186 383.352 -86.781 385.056 -83.403 386.884 C-83.045 387.083 -83.045 387.083 -81.235 388.091 C-78.333 389.691 -75.682 391.082 -72.528 392.134 C-72.528 392.794 -72.528 393.454 -72.528 394.134 C-71.798 394.267 -71.069 394.399 -70.317 394.536 C-67.739 395.088 -65.382 395.807 -62.903 396.692 C-62.03 396.996 -61.158 397.299 -60.258 397.612 C-58.467 398.241 -56.678 398.877 -54.891 399.518 C-43.151 403.572 -31.631 404.488 -19.327 404.449 C-17.227 404.446 -15.129 404.47 -13.03 404.495 C8.52 404.595 31.179 398.768 49.472 387.134 C50.132 386.474 50.792 385.814 51.472 385.134 C52.498 384.524 53.542 383.943 54.597 383.384 C66.454 376.71 77.676 366.56 85.785 355.634 C86.167 355.121 86.55 354.608 86.944 354.08 C90.804 348.82 94.268 343.319 97.555 337.684 C98.158 336.665 98.782 335.658 99.428 334.665 C103.106 328.788 104.982 322.184 107.097 315.634 C107.495 314.424 107.893 313.214 108.292 312.005 C110.13 306.412 111.919 300.813 113.472 295.134 C110.719 293.757 108.114 294.003 105.102 294.02 C104.441 294.02 103.779 294.02 103.098 294.02 C100.873 294.02 98.647 294.028 96.422 294.036 C94.83 294.038 93.239 294.039 91.647 294.04 C88.215 294.044 84.783 294.05 81.351 294.059 C75.927 294.072 70.503 294.078 65.079 294.083 C52.584 294.095 40.09 294.117 27.595 294.139 C16.149 294.159 4.703 294.177 -6.744 294.187 C-12.139 294.192 -17.533 294.202 -22.928 294.216 C-26.282 294.223 -29.635 294.226 -32.988 294.229 C-34.546 294.23 -36.104 294.234 -37.662 294.239 C-39.785 294.247 -41.908 294.248 -44.03 294.247 C-44.651 294.251 -45.271 294.254 -45.91 294.258 C-48.754 294.251 -50.796 294.044 -53.528 293.134 C-52.962 289.176 -51.719 286.468 -49.528 283.134 C-48.868 283.134 -48.208 283.134 -47.528 283.134 C-47.392 282.845 -47.392 282.845 -46.702 281.384 C-45.529 279.137 -44.221 277.174 -42.735 275.122 C-42.186 274.363 -41.638 273.605 -41.073 272.823 C-40.501 272.039 -39.929 271.254 -39.34 270.446 C-38.788 269.681 -38.236 268.916 -37.667 268.128 C-34.305 263.493 -30.845 258.951 -27.315 254.444 C-24.166 250.374 -21.132 246.221 -18.09 242.071 C-17.454 241.206 -16.818 240.34 -16.163 239.448 C-14.617 237.344 -13.072 235.239 -11.528 233.134 C-10.868 233.134 -10.208 233.134 -9.528 233.134 C-9.297 232.441 -9.066 231.749 -8.829 231.036 C-7.236 227.483 -5.125 224.731 -2.715 221.696 C-2.289 221.149 -1.863 220.602 -1.424 220.038 C1.468 216.341 4.453 212.728 7.472 209.134 C18.533 208.235 29.513 207.995 40.607 208.02 C42.372 208.02 44.138 208.02 45.904 208.02 C50.649 208.019 55.393 208.025 60.138 208.032 C65.115 208.039 70.092 208.039 75.069 208.04 C84.471 208.043 93.873 208.052 103.276 208.062 C113.989 208.073 124.703 208.078 135.417 208.083 C157.435 208.094 179.454 208.111 201.472 208.134 C202.978 210.832 203.721 212.768 203.695 215.859 C203.694 216.584 203.692 217.31 203.691 218.057 C203.679 218.844 203.667 219.63 203.655 220.44 C203.65 221.277 203.646 222.113 203.641 222.975 C203.622 225.747 203.589 228.518 203.554 231.29 C203.536 233.232 203.517 235.174 203.5 237.115 C203.46 241.198 203.413 245.28 203.361 249.362 C203.295 254.536 203.251 259.711 203.213 264.886 C203.181 268.907 203.136 272.927 203.087 276.948 C203.065 278.851 203.048 280.755 203.036 282.659 C202.914 299.415 201.425 315.986 196.722 332.134 C196.465 333.039 196.209 333.944 195.944 334.877 C187.703 363.378 175.351 388.16 158.035 412.196 C157.5 412.947 156.966 413.698 156.415 414.472 C149.903 423.517 142.662 431.48 134.156 438.669 C132.289 440.293 130.563 442.035 128.828 443.798 C120.009 452.49 109.806 459.34 99.472 466.071 C98.73 466.556 97.987 467.041 97.222 467.541 C96.521 467.993 95.82 468.445 95.097 468.911 C94.471 469.316 93.844 469.72 93.199 470.137 C91.472 471.134 91.472 471.134 88.472 472.134 C87.812 472.794 87.152 473.454 86.472 474.134 C84.382 475.237 82.302 476.266 80.16 477.259 C79.51 477.561 78.859 477.863 78.19 478.174 C69.88 481.955 61.34 485.149 52.772 488.289 C50.899 488.977 49.033 489.679 47.167 490.388 C34.841 494.84 21.514 496.78 8.589 498.739 C6.472 499.134 6.472 499.134 4.472 500.134 C3.149 500.215 1.821 500.233 0.495 500.219 C0.083 500.215 0.083 500.215 -2.002 500.197 C-2.9 500.182 -3.798 500.168 -4.723 500.153 C-5.655 500.141 -6.586 500.128 -7.546 500.115 C-10.582 500.069 -13.617 500.01 -16.653 499.946 C-17.68 499.925 -18.708 499.904 -19.766 499.882 C-35.062 499.54 -49.587 498.568 -64.528 495.134 C-66.18 494.783 -67.832 494.434 -69.485 494.087 C-75.488 492.779 -81.121 491.419 -86.739 488.899 C-89.236 487.831 -91.795 486.999 -94.372 486.145 C-109.438 481.114 -122.806 473.561 -136.343 465.35 C-136.795 465.077 -136.795 465.077 -139.083 463.696 C-139.892 463.203 -140.701 462.709 -141.535 462.2 C-143.528 461.134 -143.528 461.134 -145.528 461.134 C-145.528 460.144 -145.528 459.154 -145.528 458.134 C-145.786 458.01 -145.786 458.01 -147.09 457.384 C-156.308 452.657 -156.308 452.657 -160.063 448.638 C-161.878 446.774 -163.82 445.097 -165.778 443.384 C-178.193 432.316 -189.704 420.567 -199.528 407.134 C-200.135 406.325 -200.742 405.516 -201.367 404.682 C-206.189 398.189 -210.481 391.522 -214.528 384.509 C-214.829 383.988 -215.13 383.468 -215.441 382.932 C-220.662 373.893 -225.484 364.765 -229.528 355.134 C-229.855 354.361 -230.181 353.588 -230.518 352.792 C-255.512 292.748 -256.128 223.724 -231.751 163.405 C-228.103 154.653 -224.213 146.042 -219.805 137.645 C-218.528 135.134 -218.528 135.134 -217.528 132.134 C-216.868 132.134 -216.208 132.134 -215.528 132.134 C-215.271 131.435 -215.015 130.736 -214.751 130.017 C-213.405 126.845 -211.743 123.949 -209.965 121.009 C-208.207 118.093 -206.613 115.388 -205.528 112.134 C-204.195 110.8 -202.861 109.467 -201.528 108.134 C-201.363 107.639 -201.363 107.639 -200.528 105.134 C-199.385 103.99 -198.238 102.85 -197.071 101.731 C-188.528 92.886 -188.528 92.886 -188.528 89.134 C-187.538 88.804 -186.548 88.474 -185.528 88.134 C-183.915 86.532 -183.915 86.532 -182.215 84.509 C-181.602 83.788 -180.988 83.068 -180.356 82.325 C-179.218 80.96 -178.082 79.594 -176.95 78.224 C-174.11 74.823 -171.287 71.928 -167.727 69.274 C-166.528 68.134 -166.528 68.134 -165.528 65.134 C-163.411 63.407 -163.411 63.407 -160.653 61.509 C-156.707 58.747 -152.958 55.875 -149.278 52.759 C-143.288 47.743 -136.826 43.499 -130.269 39.267 C-128.741 38.273 -127.231 37.252 -125.723 36.227 C-118.393 31.326 -110.58 27.725 -102.575 24.09 C-100.52 23.13 -98.506 22.111 -96.489 21.075 C-92.696 19.165 -88.851 17.647 -84.84 16.259 C-84.123 16.008 -83.406 15.758 -82.668 15.5 C-73.406 12.327 -63.981 9.672 -54.528 7.134 C-54.059 7.004 -54.059 7.004 -51.688 6.349 C-44.257 4.373 -36.919 3.294 -29.278 2.509 C-27.043 2.267 -24.809 2.025 -22.575 1.782 C-21.604 1.681 -20.633 1.579 -19.632 1.475 C-18.011 1.297 -16.39 1.114 -14.775 0.886 C-9.825 0.197 -4.993 -0.01 0 0 Z " transform="translate(824.5278930664063,486.8662872314453)"/>
  <path d="M0 0 C32.01 0 64.02 0 97 0 C97.33 14.52 97.66 29.04 98 44 C100.893 63.285 104.254 79.093 113 96 C113.33 96.654 113.66 97.307 114 97.98 C119.392 108.576 125.918 117.311 134 126 C134.333 126.373 134.333 126.373 136.016 128.262 C156.162 149.854 186.782 161.897 215.898 163.277 C244.309 164.09 273.458 156.09 295.676 137.797 C298 136 298 136 300 136 C299.97 136.475 299.939 136.95 299.908 137.439 C297.872 170.427 298.012 204.136 309.398 235.645 C310.063 238.247 309.733 239.473 309 242 C251.615 265.235 188.555 267.131 131 243 C114.121 235.751 98.967 226.6 84 216 C84 215.34 84 214.68 84 214 C83.452 213.759 82.904 213.518 82.34 213.27 C79.476 211.716 77.056 209.762 74.562 207.688 C74.098 207.309 73.633 206.931 73.154 206.541 C68.716 202.882 64.68 198.932 61 194.5 C59.268 192.447 57.555 190.566 55.625 188.688 C29.034 162.608 13.056 123.564 5 88 C4.833 87.273 4.665 86.545 4.493 85.796 C-0.096 65.358 -0.282 44.47 -0.125 23.625 C-0.084 15.829 -0.042 8.033 0 0 Z " transform="translate(255,580)"/>
  </g>
</svg>
